<svg xmlns="http://www.w3.org/2000/svg" viewBox="0 0 128 128">
  <!-- Background -->
  <rect width="128" height="128" rx="24" fill="#409eff"/>

  <!-- Book icon -->
  <g transform="translate(32, 28)">
    <!-- Book cover -->
    <path d="M4 8 L4 80 C4 84 8 88 12 88 L56 88 C60 88 64 84 64 80 L64 8 C64 4 60 0 56 0 L12 0 C8 0 4 4 4 8 Z" fill="#ffffff" opacity="0.3"/>

    <!-- Book pages -->
    <path d="M12 8 L56 8 L56 80 L12 80 C10 80 8 78 8 76 L8 12 C8 10 10 8 12 8 Z" fill="#ffffff"/>

    <!-- Title lines -->
    <rect x="16" y="20" width="36" height="4" rx="2" fill="#409eff"/>
    <rect x="16" y="30" width="28" height="3" rx="1.5" fill="#a0cfff"/>

    <!-- Content lines -->
    <rect x="16" y="42" width="36" height="2" rx="1" fill="#d9ecff"/>
    <rect x="16" y="48" width="32" height="2" rx="1" fill="#d9ecff"/>
    <rect x="16" y="54" width="34" height="2" rx="1" fill="#d9ecff"/>
    <rect x="16" y="60" width="28" height="2" rx="1" fill="#d9ecff"/>
    <rect x="16" y="66" width="36" height="2" rx="1" fill="#d9ecff"/>
  </g>

  <!-- Graduation cap -->
  <g transform="translate(68, 48)">
    <!-- Cap top -->
    <path d="M0 12 L24 0 L48 12 L24 24 Z" fill="#ffd700"/>
    <!-- Cap bottom -->
    <path d="M8 14 L8 28 C8 32 16 36 24 36 C32 36 40 32 40 28 L40 14" fill="#ffec8b"/>
    <!-- Tassel -->
    <path d="M24 0 L24 12" stroke="#ff6b6b" stroke-width="2"/>
    <circle cx="24" cy="14" r="3" fill="#ff6b6b"/>
  </g>
</svg>